<svg xmlns="http://www.w3.org/2000/svg" viewBox="0 0 239.7 50.29"><title>nouveau-logotype</title><path d="M52.34,2a6.22,6.22,0,0,0-2.4,3,11.81,11.81,0,0,0-.62,3.86q-.15,2.81-.28,6c-.09,2-.18,4.35-.24,7.05s-.11,5.62-.11,8.72v4.45c0,1.62,0,3.27,0,5s0,3.37,0,5v4.51a.65.65,0,0,1-.17.46.74.74,0,0,1-.52.17,1.87,1.87,0,0,1-1.25-.7Q40.91,42.73,36.05,37L26.78,26.15Q22.37,21,18.13,16t-9-10.21V35.15q0,3.54.17,6.39a11.54,11.54,0,0,0,.87,4.23,5,5,0,0,0,2.4,2.4,14.6,14.6,0,0,0,4.48,1.15V50H0v-.69a13.65,13.65,0,0,0,3.33-.87A5.39,5.39,0,0,0,6,46.26,9.43,9.43,0,0,0,7.22,42q.29-2.84.42-6.8.14-3,.21-7c0-2.71.07-5.62.07-8.72V10.91c0-.93,0-2.06-.07-3.41a8.09,8.09,0,0,0-1-3.3,6.34,6.34,0,0,0-1.81-2,6.64,6.64,0,0,0-2.26-1A19.78,19.78,0,0,0,.49.69V0h14.1L47.51,38.48V14.86c0-1.85,0-3.62-.07-5.31a12.62,12.62,0,0,0-.62-4A6.39,6.39,0,0,0,44.35,2.4,12.26,12.26,0,0,0,39.24.69V0H56.47V.69A10.74,10.74,0,0,0,52.34,2Z" style="fill:#231f20"/><path d="M83.77,39.7a18.39,18.39,0,0,1-3.54,5.52,16.17,16.17,0,0,1-5.18,3.68,15.07,15.07,0,0,1-6.22,1.32,17.68,17.68,0,0,1-5.62-1,15.92,15.92,0,0,1-5.38-3.09,16.09,16.09,0,0,1-4-5.42A17.81,17.81,0,0,1,52.23,33a16.25,16.25,0,0,1,1.22-6.18A16.5,16.5,0,0,1,69,16.46a16.59,16.59,0,0,1,10.8,4.13,15.88,15.88,0,0,1,3.82,5.14A16.48,16.48,0,0,1,85.09,33,17.23,17.23,0,0,1,83.77,39.7ZM78.11,27.85a18.91,18.91,0,0,0-1.7-5,11,11,0,0,0-3.13-3.78,7.61,7.61,0,0,0-4.79-1.5A6.58,6.58,0,0,0,64.39,19a11.85,11.85,0,0,0-3.09,3.65,18.7,18.7,0,0,0-1.95,5.07,25.06,25.06,0,0,0-.66,5.73,31.53,31.53,0,0,0,.56,6,16.26,16.26,0,0,0,1.81,5A9.9,9.9,0,0,0,64.25,48a8.23,8.23,0,0,0,4.65,1.29,6.59,6.59,0,0,0,4.55-1.64,12.18,12.18,0,0,0,3-4.09,22.32,22.32,0,0,0,1.67-5.32,30.09,30.09,0,0,0,.52-5.28A27.61,27.61,0,0,0,78.11,27.85Z" style="fill:#231f20"/><path d="M109.68,50.08h-.49v-7l-.07-.06a24.72,24.72,0,0,1-1.88,2.5,15.73,15.73,0,0,1-2.5,2.39,11,11,0,0,1-3.09,1.7,10.39,10.39,0,0,1-3.64.63q-4.45,0-6.57-2.64t-2.12-7.71V22.16a7.05,7.05,0,0,0-.07-1c0-.35-.08-.67-.1-1a1.43,1.43,0,0,0-.17-.66,1.78,1.78,0,0,0-.8-.9A4.26,4.26,0,0,0,87,18.2,8.94,8.94,0,0,0,85.71,18c-.46,0-.9-.05-1.32-.1v-.76h10.7V37.37c0,3.06.46,5.31,1.4,6.77s2.67,2.19,5.23,2.19a7.78,7.78,0,0,0,2.55-.38,8.87,8.87,0,0,0,2-1,10.45,10.45,0,0,0,1.61-1.36,17.16,17.16,0,0,0,1.36-1.6V22.23a14.7,14.7,0,0,0-.14-1.77,3.54,3.54,0,0,0-.55-1.64,9.94,9.94,0,0,0-2.26-.55c-.95-.14-1.94-.26-2.95-.35v-.76H115V44.59a2.54,2.54,0,0,0,.11.84,1.56,1.56,0,0,0,.59.62c.42.23,1,.53,1.84.9s1.49.68,2.05.91v.41Z" style="fill:#231f20"/><path d="M151.18,18.06a10,10,0,0,0-2.05.52,6.59,6.59,0,0,0-1.95,1.15,5.54,5.54,0,0,0-1.45,2q-.84,1.95-1.91,4.58c-.72,1.77-1.48,3.62-2.26,5.56s-1.57,3.89-2.33,5.84-1.47,3.72-2.12,5.34l-.94,2.12c-.25.58-.49,1.13-.72,1.64s-.46,1-.66,1.45l-.73,1.6a.73.73,0,0,1-.7.42.52.52,0,0,1-.42-.18,1.24,1.24,0,0,1-.2-.31q-1.11-2.85-2.09-5.38l-2-5.21q-1-2.67-2.22-5.73t-2.64-6.88c-.14-.37-.34-.87-.59-1.49s-.53-1.29-.8-2-.56-1.37-.84-2a15.51,15.51,0,0,0-.76-1.6,7,7,0,0,0-1.29-.94,7.51,7.51,0,0,0-3.16-.66v-.76h16.74v.76l-1.56.17a13.27,13.27,0,0,0-1.77.32,4.5,4.5,0,0,0-1.42.59,1.25,1.25,0,0,0-.59,1.14,6.85,6.85,0,0,0,.45,1.67c.3.88.69,2,1.18,3.26s1,2.74,1.63,4.31,1.22,3.15,1.84,4.72,1.24,3.11,1.84,4.59,1.11,2.78,1.53,3.89q1-2.56,2.43-6.11c.93-2.37,1.81-4.68,2.64-6.95s1.54-4.26,2.12-6a15.12,15.12,0,0,0,.87-3.2,2,2,0,0,0-.52-1.49,2.85,2.85,0,0,0-1.29-.73,6,6,0,0,0-1.6-.21,12.64,12.64,0,0,1-1.46-.07v-.69h13.48v.76A13.28,13.28,0,0,0,151.18,18.06Z" style="fill:#231f20"/><path d="M174.76,42.89a13.11,13.11,0,0,1-2.64,3.51,14.14,14.14,0,0,1-4,2.64,12.65,12.65,0,0,1-5.18,1,15.51,15.51,0,0,1-6.46-1.32,14.17,14.17,0,0,1-5-3.72,17.15,17.15,0,0,1-3.16-5.62,21,21,0,0,1-1.11-6.84,17.44,17.44,0,0,1,4-11,14.85,14.85,0,0,1,4.65-3.71A13,13,0,0,1,162,16.46a18,18,0,0,1,5.1.7,11.89,11.89,0,0,1,4.17,2.11,11,11,0,0,1,2.88,3.58,13.05,13.05,0,0,1,1.32,5.07H153.16c0,.37,0,.8-.07,1.29A14.45,14.45,0,0,0,153,30.7a18.81,18.81,0,0,0,.83,5.59A14.92,14.92,0,0,0,156.28,41a11.42,11.42,0,0,0,4,3.23,12.85,12.85,0,0,0,5.63,1.18A10.58,10.58,0,0,0,172,43.66a8.37,8.37,0,0,0,3.43-4.35l.56.14A12.85,12.85,0,0,1,174.76,42.89Zm-7.95-23.41a6.33,6.33,0,0,0-4.76-1.84,5.75,5.75,0,0,0-3.51,1.15,13.19,13.19,0,0,0-2.71,2.67,13.9,13.9,0,0,0-1.77,3.09,12.35,12.35,0,0,0-.76,2.4h2.84c.84,0,1.66,0,2.47,0l2.53-.07c.88,0,1.86,0,2.92,0,.7,0,1.34,0,1.95-.07a5,5,0,0,0,1.59-.35,4.63,4.63,0,0,0,.73-1,3.25,3.25,0,0,0,.25-1.46A6.15,6.15,0,0,0,166.81,19.48Z" style="fill:#231f20"/><path d="M207.13,45.77A8.51,8.51,0,0,1,205.67,48a6,6,0,0,1-2.12,1.53,6.66,6.66,0,0,1-2.67.52,6.79,6.79,0,0,1-4.21-1.39c-1.22-.92-1.84-2.54-1.84-4.86l-.14-.07a16.54,16.54,0,0,1-1.49,2A13.48,13.48,0,0,1,191,47.86a11.25,11.25,0,0,1-2.85,1.56,9.74,9.74,0,0,1-3.44.59,8.54,8.54,0,0,1-2.26-.31,5.46,5.46,0,0,1-2.08-1.11,6.3,6.3,0,0,1-1.53-2.05,7.2,7.2,0,0,1-.59-3.06,5.72,5.72,0,0,1,1.56-3.75,17.6,17.6,0,0,1,3.86-3.26q2.29-1.47,4.06-2.5c1.18-.7,2.21-1.29,3.09-1.78l2.33-1.25c.67-.34,1.24-.66,1.7-.93V22.85a2.41,2.41,0,0,0-.24-.66,3.61,3.61,0,0,0-.83-1.07,5.7,5.7,0,0,0-1.64-1,6.86,6.86,0,0,0-2.71-.45,6.3,6.3,0,0,0-2.18.38,7.61,7.61,0,0,0-1.91,1A6.84,6.84,0,0,0,184,22.19a1.72,1.72,0,0,0-.49,1v3.12a2.19,2.19,0,0,1-1,1.74,3.54,3.54,0,0,1-2.18.77,2.6,2.6,0,0,1-1.91-.8,2.5,2.5,0,0,1-.8-1.84,3,3,0,0,1,.41-1.53,5.41,5.41,0,0,1,1-1.25,7.23,7.23,0,0,1,1.35-1c.49-.28.91-.54,1.28-.77q1.81-1,3.69-2c1.25-.65,2.44-1.21,3.57-1.67s2.18-.83,3.13-1.11a8.59,8.59,0,0,1,2.33-.42,6.58,6.58,0,0,1,3.4.94,5.62,5.62,0,0,1,2.29,2.33,4.14,4.14,0,0,1,.35,1.7c0,.81.07,1.61.07,2.39,0,1.67,0,3.18,0,4.52s0,2.64,0,3.89,0,2.53,0,3.85,0,2.77,0,4.35c0,2.08.36,3.46,1.08,4.13a3.5,3.5,0,0,0,2.46,1,3.54,3.54,0,0,0,2.36-.66,3.36,3.36,0,0,0,1.05-1.71h.41A7.07,7.07,0,0,1,207.13,45.77Zm-12.3-14.65A27.8,27.8,0,0,1,191.71,33c-1.25.67-2.47,1.4-3.65,2.19a16,16,0,0,0-3.06,2.6,4.72,4.72,0,0,0-1.28,3.23A4.92,4.92,0,0,0,185,44.32a4.08,4.08,0,0,0,3.26,1.45,11.46,11.46,0,0,0,3.2-.41,6.11,6.11,0,0,0,2.57-1.6,2.55,2.55,0,0,0,.83-1.95Z" style="fill:#231f20"/><path d="M229.84,50.08h-.49v-7l-.07-.06a26.09,26.09,0,0,1-1.87,2.5,16.17,16.17,0,0,1-2.5,2.39,11.33,11.33,0,0,1-3.09,1.7,10.45,10.45,0,0,1-3.65.63q-4.44,0-6.56-2.64c-1.42-1.76-2.12-4.33-2.12-7.71V22.16a8.87,8.87,0,0,0-.07-1c0-.35-.08-.67-.11-1a1.43,1.43,0,0,0-.17-.66,1.74,1.74,0,0,0-.8-.9,4.19,4.19,0,0,0-1.14-.42,9.13,9.13,0,0,0-1.32-.18c-.47,0-.91-.05-1.32-.1v-.76h10.69V37.37c0,3.06.47,5.31,1.4,6.77s2.68,2.19,5.24,2.19a7.76,7.76,0,0,0,2.54-.38,9,9,0,0,0,2-1,10.37,10.37,0,0,0,1.6-1.36,15.76,15.76,0,0,0,1.36-1.6V22.23a14.4,14.4,0,0,0-.13-1.77,3.54,3.54,0,0,0-.56-1.64,9.94,9.94,0,0,0-2.26-.55c-1-.14-1.93-.26-3-.35v-.76h11.67V44.59a2.59,2.59,0,0,0,.1.84,1.64,1.64,0,0,0,.59.62c.42.23,1,.53,1.84.9s1.5.68,2,.91v.41Z" style="fill:#231f20"/></svg>